Coordinates
version=1
nRows=10
nColumns=22
inDegrees=yes

Units are S.I. units (second, meters, Newtons, ...)
If the header above contains a line with 'inDegrees', this indicates whether rotational values are in degrees (yes) or radians (no).

endheader
time	pelvis_tilt	pelvis_list	pelvis_rotation	pelvis_tx	pelvis_ty	pelvis_tz	hip_flexion_r	hip_adduction_r	hip_rotation_r	knee_angle_r	ankle_angle_r	subtalar_angle_r	hip_flexion_l	hip_adduction_l	hip_rotation_l	knee_angle_l	ankle_angle_l	subtalar_angle_l	lumbar_extension	lumbar_bending	lumbar_rotation
      2.74000000	     12.83124457	     -5.09141291	    -39.10745133	      1.15722048	      0.84671430	      0.88741216	     17.28022166	     -8.42265692	      4.27424178	    -86.75387500	     18.60898171	    -13.33419737	     21.45071578	      4.38044882	     -8.41570391	    -43.29189790	     12.66803093	     -9.83861982	    -19.22176660	     -4.80426039	      8.10431006
      2.75000000	     13.54538337	     -4.70234521	    -38.52139868	      1.16847421	      0.84352416	      0.89263535	     19.10339566	     -9.08485517	      4.49191596	    -87.38165785	     18.83731293	    -13.13910116	     21.43294145	      5.59343686	     -7.95810102	    -45.19143434	     14.04048497	    -10.61645422	    -19.95712148	     -5.39256742	      6.35446019
      2.76000000	     14.10900007	     -4.34180576	    -38.02183419	      1.17948171	      0.84132432	      0.89792229	     20.86972875	     -9.57634776	      4.70572077	    -87.42553307	     18.99612682	    -13.04944096	     21.20058041	      6.64682329	     -7.59008997	    -46.59174283	     15.23344489	    -11.10897696	    -20.49743067	     -5.86367397	      4.71526746
      2.77000000	     14.51891633	     -4.01472726	    -37.61940687	      1.19026682	      0.84013066	      0.90325914	     22.53815085	     -9.90218754	      4.89764340	    -86.86735891	     19.10276996	    -13.11982199	     20.75210275	      7.53750100	     -7.29786781	    -47.48512788	     16.25317110	    -11.28929590	    -20.83261675	     -6.21187483	      3.20135240
      2.78000000	     14.76314835	     -3.72318111	    -37.35769618	      1.20077696	      0.83990387	      0.90868179	     24.10096945	    -10.03428197	      5.09301884	    -85.71479791	     19.13981208	    -13.36939033	     20.12046690	      8.24539489	     -7.09622517	    -47.89514893	     17.21385805	    -11.55022383	    -20.95174605	     -6.44034738	      1.87806426
      2.79000000	     14.87701352	     -3.50517628	    -37.23909280	      1.21098200	      0.84073049	      0.91422904	     25.44343802	     -9.95037151	      5.28195605	    -83.94093924	     19.11741058	    -14.02961016	     19.27756300	      8.75983929	     -6.97141363	    -47.85532843	     18.11088901	    -11.85576104	    -20.92166632	     -6.54533864	      0.78026572
      2.80000000	     14.90546707	     -3.34655211	    -37.21321266	      1.22093384	      0.84262424	      0.91986558	     26.48121583	     -9.73599100	      5.40632981	    -81.54814363	     19.07572096	    -14.67393011	     18.23337838	      9.13968277	     -6.87182609	    -47.41030569	     18.77029726	    -11.89954723	    -20.79046608	     -6.55563598	     -0.17083864
      2.81000000	     14.82537078	     -3.25941386	    -37.34120688	      1.23054582	      0.84549006	      0.92571197	     27.22387856	     -9.31568594	      5.53145206	    -78.56929855	     18.92405848	    -15.50583348	     17.05197962	      9.32897441	     -6.86695576	    -46.63452004	     19.24889234	    -11.88635892	    -20.55238341	     -6.47684716	     -0.86399409
      2.82000000	     14.70855127	     -3.28275036	    -37.53909471	      1.23991856	      0.84941898	      0.93173218	     27.51384634	     -8.76955583	      5.56022881	    -74.99798553	     18.75816916	    -15.82477130	     15.67162542	      9.36404315	     -6.89749365	    -45.57240668	     19.47819525	    -11.79302091	    -20.31539934	     -6.30558382	     -1.41377943
      2.83000000	     14.56302210	     -3.40329150	    -37.79741589	      1.24909103	      0.85429646	      0.93794372	     27.35437594	     -8.12515229	      5.49678004	    -70.89203419	     18.51445726	    -15.88365579	     14.12869145	      9.26701174	     -6.96688409	    -44.27499014	     19.47469840	    -11.60926476	    -20.08601117	     -6.06853166	     -1.81471254
